<?xml version="1.0" encoding="UTF-8"?>
<svg width="32" height="32" version="1.1" viewBox="0 0 32 32" xmlns="http://www.w3.org/2000/svg">
  <defs>
    <linearGradient id="grad" x1="0%" y1="0%" x2="100%" y2="100%">
      <stop offset="0%" style="stop-color:#ff3366;stop-opacity:1" />
      <stop offset="100%" style="stop-color:#ff69b4;stop-opacity:1" />
    </linearGradient>
  </defs>
  <rect width="32" height="32" rx="8" fill="url(#grad)"/>
  <g transform="translate(8,6)" fill="white">
    <!-- Microphone icon -->
    <path d="M8,0 C6.34,0 5,1.34 5,3 L5,9 C5,10.66 6.34,12 8,12 C9.66,12 11,10.66 11,9 L11,3 C11,1.34 9.66,0 8,0 Z" />
    <path d="M14,9 C14,12.53 11.39,15.44 8,15.93 L8,19 L6,19 L6,15.93 C2.61,15.44 0,12.53 0,9 L2,9 C2,11.76 4.24,14 7,14 L9,14 C11.76,14 14,11.76 14,9 Z" />
  </g>
</svg> 